<mxfile host="app.diagrams.net" modified="2023-07-21T10:34:52.962Z" agent="Mozilla/5.0 (Windows NT 10.0; Win64; x64) AppleWebKit/537.36 (KHTML, like Gecko) Chrome/114.0.0.0 YaBrowser/23.7.0.2526 Yowser/2.5 Safari/537.36" etag="OpU-b4V3NpVkpSXtkujR" version="21.6.5" type="google">
  <diagram name="Страница 1" id="0WLkSLYpBrPgm9NJ6CTr">
    <mxGraphModel grid="1" page="1" gridSize="10" guides="1" tooltips="1" connect="1" arrows="1" fold="1" pageScale="1" pageWidth="827" pageHeight="1169" math="0" shadow="0">
      <root>
        <mxCell id="0" />
        <mxCell id="1" parent="0" />
        <mxCell id="1M97cWh0Y1G8dRO5iodr-4" value="" style="edgeStyle=orthogonalEdgeStyle;rounded=0;orthogonalLoop=1;jettySize=auto;html=1;" edge="1" parent="1" source="1M97cWh0Y1G8dRO5iodr-1" target="1M97cWh0Y1G8dRO5iodr-2">
          <mxGeometry relative="1" as="geometry" />
        </mxCell>
        <mxCell id="1M97cWh0Y1G8dRO5iodr-1" value="Begin" style="strokeWidth=2;html=1;shape=mxgraph.flowchart.terminator;whiteSpace=wrap;" vertex="1" parent="1">
          <mxGeometry x="350" y="40" width="100" height="60" as="geometry" />
        </mxCell>
        <mxCell id="1M97cWh0Y1G8dRO5iodr-5" value="" style="edgeStyle=orthogonalEdgeStyle;rounded=0;orthogonalLoop=1;jettySize=auto;html=1;" edge="1" parent="1" source="1M97cWh0Y1G8dRO5iodr-2" target="1M97cWh0Y1G8dRO5iodr-3">
          <mxGeometry relative="1" as="geometry" />
        </mxCell>
        <mxCell id="1M97cWh0Y1G8dRO5iodr-2" value="input(N)" style="shape=parallelogram;html=1;strokeWidth=2;perimeter=parallelogramPerimeter;whiteSpace=wrap;rounded=1;arcSize=12;size=0.23;" vertex="1" parent="1">
          <mxGeometry x="350" y="140" width="100" height="60" as="geometry" />
        </mxCell>
        <mxCell id="1M97cWh0Y1G8dRO5iodr-7" value="" style="edgeStyle=orthogonalEdgeStyle;rounded=0;orthogonalLoop=1;jettySize=auto;html=1;" edge="1" parent="1" source="1M97cWh0Y1G8dRO5iodr-3" target="1M97cWh0Y1G8dRO5iodr-6">
          <mxGeometry relative="1" as="geometry" />
        </mxCell>
        <mxCell id="1M97cWh0Y1G8dRO5iodr-3" value="i = 1&lt;br&gt;F = 1" style="rounded=1;whiteSpace=wrap;html=1;absoluteArcSize=1;arcSize=14;strokeWidth=2;" vertex="1" parent="1">
          <mxGeometry x="350" y="240" width="100" height="60" as="geometry" />
        </mxCell>
        <mxCell id="1M97cWh0Y1G8dRO5iodr-9" value="" style="edgeStyle=orthogonalEdgeStyle;rounded=0;orthogonalLoop=1;jettySize=auto;html=1;" edge="1" parent="1" source="1M97cWh0Y1G8dRO5iodr-6" target="1M97cWh0Y1G8dRO5iodr-8">
          <mxGeometry relative="1" as="geometry" />
        </mxCell>
        <mxCell id="1M97cWh0Y1G8dRO5iodr-13" value="" style="edgeStyle=orthogonalEdgeStyle;rounded=0;orthogonalLoop=1;jettySize=auto;html=1;" edge="1" parent="1" source="1M97cWh0Y1G8dRO5iodr-6" target="1M97cWh0Y1G8dRO5iodr-11">
          <mxGeometry relative="1" as="geometry">
            <Array as="points">
              <mxPoint x="540" y="380" />
              <mxPoint x="540" y="580" />
              <mxPoint x="400" y="580" />
            </Array>
          </mxGeometry>
        </mxCell>
        <mxCell id="1M97cWh0Y1G8dRO5iodr-6" value="i &amp;lt;= N" style="strokeWidth=2;html=1;shape=mxgraph.flowchart.decision;whiteSpace=wrap;" vertex="1" parent="1">
          <mxGeometry x="350" y="330" width="100" height="100" as="geometry" />
        </mxCell>
        <mxCell id="1M97cWh0Y1G8dRO5iodr-10" style="edgeStyle=orthogonalEdgeStyle;rounded=0;orthogonalLoop=1;jettySize=auto;html=1;entryX=0;entryY=0.5;entryDx=0;entryDy=0;entryPerimeter=0;" edge="1" parent="1" source="1M97cWh0Y1G8dRO5iodr-8" target="1M97cWh0Y1G8dRO5iodr-6">
          <mxGeometry relative="1" as="geometry">
            <Array as="points">
              <mxPoint x="400" y="560" />
              <mxPoint x="240" y="560" />
              <mxPoint x="240" y="380" />
            </Array>
          </mxGeometry>
        </mxCell>
        <mxCell id="1M97cWh0Y1G8dRO5iodr-8" value="F = F * i&lt;br&gt;i = i + 1" style="rounded=1;whiteSpace=wrap;html=1;absoluteArcSize=1;arcSize=14;strokeWidth=2;" vertex="1" parent="1">
          <mxGeometry x="350" y="460" width="100" height="60" as="geometry" />
        </mxCell>
        <mxCell id="1M97cWh0Y1G8dRO5iodr-14" value="" style="edgeStyle=orthogonalEdgeStyle;rounded=0;orthogonalLoop=1;jettySize=auto;html=1;" edge="1" parent="1" source="1M97cWh0Y1G8dRO5iodr-11" target="1M97cWh0Y1G8dRO5iodr-12">
          <mxGeometry relative="1" as="geometry">
            <Array as="points">
              <mxPoint x="400" y="710" />
              <mxPoint x="400" y="710" />
            </Array>
          </mxGeometry>
        </mxCell>
        <mxCell id="1M97cWh0Y1G8dRO5iodr-11" value="print(F)" style="strokeWidth=2;html=1;shape=mxgraph.flowchart.document2;whiteSpace=wrap;size=0.25;" vertex="1" parent="1">
          <mxGeometry x="350" y="610" width="100" height="60" as="geometry" />
        </mxCell>
        <mxCell id="1M97cWh0Y1G8dRO5iodr-12" value="End" style="strokeWidth=2;html=1;shape=mxgraph.flowchart.terminator;whiteSpace=wrap;" vertex="1" parent="1">
          <mxGeometry x="350" y="710" width="100" height="60" as="geometry" />
        </mxCell>
        <mxCell id="1M97cWh0Y1G8dRO5iodr-15" value="No" style="text;html=1;align=center;verticalAlign=middle;resizable=0;points=[];autosize=1;strokeColor=none;fillColor=none;" vertex="1" parent="1">
          <mxGeometry x="440" y="348" width="40" height="30" as="geometry" />
        </mxCell>
        <mxCell id="1M97cWh0Y1G8dRO5iodr-16" value="Yes" style="text;html=1;align=center;verticalAlign=middle;resizable=0;points=[];autosize=1;strokeColor=none;fillColor=none;" vertex="1" parent="1">
          <mxGeometry x="400" y="418" width="40" height="30" as="geometry" />
        </mxCell>
      </root>
    </mxGraphModel>
  </diagram>
</mxfile>
